<svg width="68" height="68" viewBox="0 0 68 68" fill="none" xmlns="http://www.w3.org/2000/svg">
<path d="M2.4707 26.1572C6.80807 8.75469 24.4218 -1.8675 41.8066 2.4707L41.8115 2.47168C59.2493 6.75668 69.8596 24.4311 65.5332 41.8438C61.196 59.244 43.5729 69.8684 26.1416 65.5293H26.1426C8.74108 61.1787 -1.86525 43.5548 2.4707 26.1572Z" fill="white" stroke="#0052FF" stroke-width="3"/>
<path d="M50.0999 29.5336C50.711 25.0003 47.2666 22.6336 42.5444 21.0336L44.011 14.9003L40.2777 14.0003L38.8555 20.0003C37.8666 19.7669 36.8666 19.5336 35.8777 19.3336L37.2999 13.3336L33.5221 12.4336L32.0555 18.5669C31.2555 18.378 30.4444 18.2336 29.6444 18.0447L24.4999 16.8114L23.5555 20.7781C23.5555 20.7781 26.3444 21.3892 26.2444 21.4447C27.7555 21.8225 28.0444 22.8114 27.9888 23.5669L26.3332 30.5559C26.4332 30.6003 26.5666 30.6003 26.711 30.7003C26.5666 30.6558 26.4777 30.6559 26.3332 30.6114L24.0666 40.3892C23.8777 40.8559 23.3999 41.5225 22.3666 41.2892C22.411 41.3336 19.6221 40.6225 19.6221 40.6225L17.8555 44.9225L22.7221 46.0559C23.6221 46.2892 24.5221 46.4781 25.3666 46.7225L23.8999 52.9114L27.6332 53.8114L29.0999 47.6781C30.1444 47.9559 31.1332 48.2003 32.0777 48.4337L30.611 54.5226L34.3444 55.4226L35.811 49.2337C42.1888 50.367 46.9555 49.8448 48.8888 44.0337C50.4444 39.4003 48.7444 36.7559 45.3444 35.0114C47.8332 34.4447 49.6332 32.8336 50.0999 29.5336ZM41.6999 41.567C40.611 46.2003 32.7777 43.7892 30.2666 43.1781L32.1999 34.9559C34.7555 35.5781 42.8332 36.7114 41.6999 41.567ZM42.7332 29.5336C41.7444 33.7336 35.2221 31.7114 33.0999 31.1892L34.8999 23.7336C36.9777 24.2447 43.7777 25.1447 42.7332 29.5336Z" fill="#0052FF"/>
</svg>
