<svg width="500" height="500" viewBox="0 0 500 500" fill="none" xmlns="http://www.w3.org/2000/svg">
<path d="M459.682 336.878L368.963 298.901L252.842 347.51C251.032 348.274 249.002 348.274 247.192 347.51L131.072 298.901L40.3525 336.878C31.9285 340.428 31.9285 355.764 40.3525 359.288L247.175 445.857C248.985 446.62 251.015 446.62 252.825 445.857L459.682 359.261C468.106 355.764 468.106 340.41 459.682 336.878Z" fill="#007AFF" fill-opacity="0.6"/>
<path d="M459.682 260.918L252.825 347.514C251.015 348.277 248.985 348.277 247.175 347.514L40.3179 260.918C31.894 257.368 31.894 242.041 40.3179 238.517L131.037 200.531L247.157 178.139C248.053 178.521 249.013 178.718 249.983 178.718C250.952 178.718 251.913 178.521 252.808 178.139L368.928 200.531L459.648 238.517C468.106 242.041 468.106 257.395 459.682 260.918Z" fill="#007AFF" fill-opacity="0.8"/>
<path d="M247.175 249.138L40.3179 162.551C31.894 159.001 31.894 143.665 40.3179 140.141L247.175 53.5726C248.985 52.8091 251.015 52.8091 252.825 53.5726L459.682 140.168C468.106 143.718 468.106 159.046 459.682 162.578L252.825 249.138C251.93 249.52 250.97 249.717 250 249.717C249.03 249.717 248.07 249.52 247.175 249.138Z" fill="#007AFF"/>
</svg>
