<svg width="68" height="68" viewBox="0 0 68 68" fill="none" xmlns="http://www.w3.org/2000/svg">
<g clip-path="url(#clip0_2308_6738)">
<path d="M34 68C52.7777 68 68 52.7777 68 34C68 15.2223 52.7777 0 34 0C15.2223 0 0 15.2223 0 34C0 52.7777 15.2223 68 34 68Z" fill="#EEF2F7"/>
<path d="M34.0004 64.6004C31.9238 64.6004 29.8488 64.3912 27.8328 63.9787C25.8684 63.5767 23.9361 62.9769 22.0897 62.1959C20.2766 61.4291 18.5279 60.4799 16.892 59.3747C15.2716 58.28 13.7478 57.0227 12.3629 55.6379C10.9781 54.253 9.72081 52.7292 8.62606 51.1088C7.5209 49.4729 6.57172 47.7242 5.80486 45.9111C5.02387 44.0647 4.42407 42.1324 4.02208 40.168C3.60956 38.152 3.40039 36.0769 3.40039 34.0004C3.40039 31.9238 3.60956 29.8488 4.02208 27.8328C4.42407 25.8684 5.02387 23.9361 5.80486 22.0897C6.57172 20.2766 7.5209 18.5279 8.62606 16.892C9.72081 15.2716 10.9781 13.7478 12.3629 12.3629C13.7478 10.9781 15.2716 9.72081 16.892 8.62606C18.5279 7.5209 20.2766 6.57172 22.0897 5.80486C23.9361 5.02387 25.8684 4.42407 27.8328 4.02208C29.8488 3.60956 31.9238 3.40039 34.0004 3.40039C36.0769 3.40039 38.152 3.60956 40.168 4.02208C42.1324 4.42407 44.0647 5.02387 45.9111 5.80486C47.7242 6.57172 49.4729 7.5209 51.1088 8.62606C52.7292 9.72081 54.253 10.9781 55.6379 12.3629C57.0227 13.7478 58.28 15.2716 59.3747 16.892C60.4799 18.5279 61.4291 20.2766 62.1959 22.0897C62.9769 23.9361 63.5767 25.8684 63.9787 27.8328C64.3912 29.8488 64.6004 31.9238 64.6004 34.0004C64.6004 36.0769 64.3912 38.152 63.9787 40.168C63.5767 42.1324 62.9769 44.0647 62.1959 45.9111C61.4291 47.7242 60.4799 49.4729 59.3747 51.1088C58.28 52.7292 57.0227 54.253 55.6379 55.6379C54.253 57.0227 52.7292 58.28 51.1088 59.3747C49.4729 60.4799 47.7242 61.4291 45.9111 62.1959C44.0647 62.9769 42.1324 63.5767 40.168 63.9787C38.152 64.3912 36.0769 64.6004 34.0004 64.6004Z" fill="#EEF2F7"/>
<path d="M34.0007 3.96634C31.9622 3.96634 29.9253 4.17163 27.9467 4.57653C26.0189 4.97102 24.1227 5.55963 22.3107 6.32605C20.5313 7.07865 18.815 8.01023 17.2095 9.0949C15.619 10.1695 14.1232 11.4035 12.7639 12.7629C11.4045 14.1223 10.1704 15.618 9.09587 17.2085C8.0112 18.8141 7.07963 20.5303 6.32702 22.3097C5.56061 24.1217 4.97199 26.0179 4.5775 27.9457C4.17261 29.9244 3.96732 31.9612 3.96732 33.9997C3.96732 36.0381 4.17261 38.075 4.5775 40.0536C4.97199 41.9814 5.56061 43.8777 6.32702 45.6897C7.07963 47.469 8.0112 49.1853 9.09587 50.7908C10.1704 52.3814 11.4045 53.8771 12.7639 55.2364C14.1232 56.5958 15.619 57.8299 17.2095 58.9045C18.815 59.9891 20.5313 60.9207 22.3107 61.6733C24.1227 62.4397 26.0189 63.0283 27.9467 63.4228C29.9253 63.8277 31.9622 64.033 34.0007 64.033C36.0391 64.033 38.076 63.8277 40.0546 63.4228C41.9824 63.0283 43.8786 62.4397 45.6906 61.6733C47.47 60.9207 49.1863 59.9891 50.7918 58.9045C52.3823 57.8299 53.8781 56.5958 55.2374 55.2364C56.5968 53.8771 57.8309 52.3814 58.9054 50.7908C59.9901 49.1853 60.9217 47.469 61.6743 45.6897C62.4407 43.8777 63.0293 41.9814 63.4238 40.0536C63.8287 38.075 64.034 36.0381 64.034 33.9997C64.034 31.9612 63.8287 29.9244 63.4238 27.9457C63.0293 26.0179 62.4407 24.1217 61.6743 22.3097C60.9217 20.5303 59.9901 18.8141 58.9054 17.2085C57.8309 15.618 56.5968 14.1223 55.2374 12.7629C53.8781 11.4035 52.3823 10.1695 50.7918 9.0949C49.1863 8.01023 47.47 7.07865 45.6906 6.32605C43.8786 5.55963 41.9824 4.97102 40.0546 4.57653C38.076 4.17163 36.0391 3.96634 34.0007 3.96634ZM34.0007 2.83301C51.2135 2.83301 65.1673 16.7868 65.1673 33.9997C65.1673 51.2125 51.2135 65.1663 34.0007 65.1663C16.7878 65.1663 2.83398 51.2125 2.83398 33.9997C2.83398 16.7868 16.7878 2.83301 34.0007 2.83301Z" fill="#C4C4C4"/>
<path d="M33.9996 63.9621C50.5474 63.9621 63.9621 50.5474 63.9621 33.9996C63.9621 17.4518 50.5474 4.03711 33.9996 4.03711C17.4518 4.03711 4.03711 17.4518 4.03711 33.9996C4.03711 50.5474 17.4518 63.9621 33.9996 63.9621Z" stroke="#AAAAB7" stroke-width="0.708333"/>
<mask id="mask0_2308_6738" style="mask-type:luminance" maskUnits="userSpaceOnUse" x="15" y="15" width="38" height="38">
<path d="M52.6922 15.2285H15.3066V52.7716H52.6922V15.2285Z" fill="white"/>
</mask>
<g mask="url(#mask0_2308_6738)">
<path d="M25.582 52.772C35.2153 52.772 35.2154 52.6283 36.8493 52.1438C38.9837 51.5103 30.822 45.8604 25.582 45.8604C20.342 45.8604 16.0938 47.4079 16.0938 49.3165C16.0938 51.225 20.3403 52.772 25.582 52.772Z" fill="black"/>
<path d="M47.4563 23.3841L47.8994 23.8615L47.5127 24.3848C34.9483 41.3732 27.7102 49.0645 24.6392 48.0335C22.7692 47.4048 20.8932 45.5152 19.017 42.7711C18.3577 41.8064 17.7383 40.7906 17.1753 39.7803C16.8005 39.1071 16.4831 38.4934 16.3182 38.1477C16.1463 37.8101 16.0223 37.4501 15.9499 37.0781L15.9414 37.0351C15.9131 36.8835 15.9017 36.8367 15.8796 36.7517C15.0172 33.5018 15.1304 30.0699 16.2051 26.8838C17.2797 23.6978 19.2683 20.8985 21.923 18.8349C24.5777 16.7712 27.7811 15.5346 31.1337 15.279C34.4864 15.0235 37.8402 15.7604 40.777 17.3978L40.8422 17.4386C42.9137 18.8813 45.1184 20.863 47.4563 23.3841ZM39.9763 18.7501C37.3077 17.2731 34.2639 16.6129 31.2232 16.8515C28.1825 17.09 25.2789 18.2168 22.8733 20.0919C20.4676 21.967 18.6661 24.5077 17.6924 27.3982C16.7188 30.2887 16.616 33.4015 17.3969 36.35C17.4309 36.478 17.4465 36.55 17.4819 36.7356L17.489 36.7738C17.537 37.0167 17.6201 37.2513 17.7357 37.4703C17.8862 37.7859 18.1891 38.3698 18.5472 39.0141C19.0887 39.9854 19.6834 40.9612 20.3132 41.8835C22.0087 44.3623 23.6892 46.0558 25.139 46.5429C27.0733 47.1926 34.3538 39.4856 45.8597 23.9759C44.0773 22.0426 42.1064 20.292 39.9763 18.7501Z" fill="black"/>
<path d="M39.9754 18.7503C37.3068 17.2732 34.2629 16.6129 31.2221 16.8514C28.1813 17.0899 25.2776 18.2167 22.8719 20.0919C20.4663 21.967 18.6647 24.5078 17.6911 27.3984C16.7174 30.289 16.6147 33.4019 17.3957 36.3504C17.4297 36.4785 17.4453 36.5504 17.4807 36.736L17.4878 36.7743C17.5355 37.0175 17.6185 37.2525 17.734 37.4718C17.8845 37.7875 18.1874 38.3714 18.5455 39.0157C19.0869 39.987 19.6817 40.9628 20.3115 41.885C22.007 44.3639 23.6874 46.0574 25.1372 46.5445C27.0727 47.195 34.3524 39.4883 45.8588 23.9775C44.0765 22.0437 42.1056 20.2926 39.9754 18.7503Z" fill="#EC1C79"/>
<path d="M35.5713 52.6144C32.1849 52.6144 28.8745 51.6102 26.0588 49.7288C23.2431 47.8474 21.0485 45.1733 19.7526 42.0446C18.4566 38.9159 18.1176 35.4732 18.7782 32.1519C19.4389 28.8305 21.0696 25.7796 23.4642 23.3851C25.8587 20.9905 28.9096 19.3598 32.231 18.6991C35.5524 18.0385 38.995 18.3775 42.1237 19.6735C45.2524 20.9694 47.9265 23.164 49.8079 25.9797C51.6893 28.7954 52.6935 32.1058 52.6935 35.4922C52.6935 37.7408 52.2506 39.9673 51.3902 42.0446C50.5297 44.122 49.2685 46.0095 47.6786 47.5995C46.0887 49.1894 44.2011 50.4506 42.1237 51.3111C40.0464 52.1715 37.8199 52.6144 35.5713 52.6144ZM35.5713 51.0436C38.647 51.0435 41.6536 50.1314 44.211 48.4226C46.7683 46.7138 48.7614 44.285 49.9384 41.4435C51.1154 38.6019 51.4233 35.4751 50.8233 32.4585C50.2232 29.4419 48.7421 26.671 46.5672 24.4962C44.3923 22.3214 41.6214 20.8403 38.6048 20.2403C35.5882 19.6403 32.4614 19.9482 29.6199 21.1253C26.7783 22.3023 24.3496 24.2955 22.6408 26.8529C20.9321 29.4102 20.02 32.4168 20.02 35.4925C20.0201 39.6169 21.6585 43.5723 24.5749 46.4887C27.4913 49.4051 31.447 51.0435 35.5713 51.0436Z" fill="black"/>
<path d="M35.5706 51.0435C38.6463 51.0435 41.6529 50.1314 44.2102 48.4227C46.7676 46.7139 48.7608 44.2852 49.9378 41.4436C51.1148 38.6021 51.4228 35.4753 50.8228 32.4587C50.2228 29.4421 48.7417 26.6712 46.5669 24.4963C44.3921 22.3214 41.6212 20.8403 38.6046 20.2403C35.588 19.6402 32.4612 19.9481 29.6196 21.1251C26.7781 22.3021 24.3493 24.2952 22.6405 26.8525C20.9317 29.4099 20.0196 32.4165 20.0195 35.4922C20.0196 39.6165 21.658 43.572 24.5744 46.4883C27.4908 49.4047 31.4462 51.0434 35.5706 51.0435Z" fill="white"/>
<path fill-rule="evenodd" clip-rule="evenodd" d="M23.9373 38.6782L21.8789 32.4766H23.6826L24.7559 36.0392L25.9428 32.459H27.4113L28.5987 36.0392L29.672 32.4766H31.4406L29.3821 38.6782H27.8958L26.6556 35.1334L25.4237 38.6782H23.9373ZM32.118 38.6345V32.4766H37.0707V33.9284H33.8075V34.8608H36.763V36.2075H33.8075V37.1836H37.1143V38.6354L32.118 38.6345ZM39.4903 38.6345V33.972H37.6433V32.4766H43.0433V33.972H41.1963V38.6342L39.4903 38.6345ZM43.7916 38.6345V32.4766H45.4984V34.7809H47.6886V32.4766H49.396V38.6342H47.6886V36.2945H45.4984V38.6342L43.7916 38.6345Z" fill="black"/>
<path d="M16.3282 30.6238C16.1195 30.5195 15.9608 30.3365 15.887 30.1151C15.8132 29.8938 15.8303 29.6522 15.9347 29.4434C16.039 29.2347 16.222 29.076 16.4433 29.0022C16.6647 28.9284 16.9063 28.9455 17.115 29.0499L19.6279 30.307C19.7312 30.3587 19.8233 30.4301 19.899 30.5174C19.9747 30.6046 20.0325 30.7059 20.069 30.8154C20.1056 30.925 20.1202 31.0407 20.112 31.1559C20.1039 31.2711 20.0731 31.3835 20.0215 31.4868C19.9698 31.5901 19.8984 31.6823 19.8111 31.758C19.7239 31.8336 19.6226 31.8914 19.5131 31.928C19.4035 31.9645 19.2878 31.9791 19.1726 31.9709C19.0574 31.9628 18.945 31.932 18.8417 31.8804L16.3282 30.6238Z" fill="black"/>
<path d="M16.0384 34.7913C15.9336 34.7429 15.8393 34.6744 15.7609 34.5895C15.6825 34.5047 15.6216 34.4053 15.5816 34.2969C15.5417 34.1886 15.5235 34.0734 15.528 33.958C15.5326 33.8426 15.5598 33.7292 15.6082 33.6244C15.6566 33.5195 15.7251 33.4252 15.8099 33.3468C15.8948 33.2684 15.9942 33.2075 16.1025 33.1676C16.2109 33.1276 16.3261 33.1094 16.4415 33.114C16.5569 33.1185 16.6702 33.1458 16.7751 33.1941L19.2886 34.3535C19.4975 34.453 19.6589 34.6308 19.7377 34.8485C19.8164 35.0661 19.8063 35.3061 19.7094 35.5162C19.6124 35.7264 19.4366 35.89 19.2199 35.9714C19.0033 36.0528 18.7633 36.0456 18.5519 35.9512L16.0384 34.7913Z" fill="black"/>
</g>
</g>
<defs>
<clipPath id="clip0_2308_6738">
<rect width="68" height="68" fill="white"/>
</clipPath>
</defs>
</svg>
